<svg xmlns="http://www.w3.org/2000/svg" width="24" height="24" viewBox="0 0 24 24" fill="none" stroke="blue" stroke-width="2" stroke-linecap="round" stroke-linejoin="round" class="lucide lucide-phone">
  <path d="M22 16.92v3a2 2 0 0 1-2.18 2 19.8 19.8 0 0 1-8.63-3.4 19.51 19.51 0 0 1-6-6A19.8 19.8 0 0 1 2 4.18 2 2 0 0 1 4 2h3a2 2 0 0 1 2 1.72 12.42 12.42 0 0 0 .67 2.83 2 2 0 0 1-.45 2.11l-1.27 1.27a16 16 0 0 0 6 6l1.27-1.27a2 2 0 0 1 2.11-.45 12.42 12.42 0 0 0 2.83.67A2 2 0 0 1 22 16.92z"></path>
</svg>